#!OML:ASF F:\VICON\USERDATA\INSTALL\rory3\rory3.ASF
:FULLY-SPECIFIED
:DEGREES
80
root 0.0235771 18.0125 -0.975987 2.44772 -11.349 1.34511
lowerback -1.14607 -0.219248 -2.49764
upperback -0.287661 -0.269274 1.3696
thorax 0.365746 -0.136917 2.80225
lowerneck -19.7687 0.359443 -7.71826
upperneck 36.5631 3.05277 1.14506
head 16.3246 0.29165 2.43444
rclavicle 2.11084e-014 1.27222e-014
rhumerus -24.0777 34.7143 -94.5304
rradius 82.7922
rwrist 30.5062
rhand -30.1081 3.01463
rfingers 7.12502
rthumb -3.42183 -26.9376
lclavicle 2.11084e-014 1.27222e-014
lhumerus -25.9366 -13.7985 97.1654
lradius 47.9117
lwrist 7.49985
lhand -29.1166 21.6674
lfingers 7.12502
lthumb -2.46427 51.6329
rfemur -9.03204 8.73869 14.4045
rtibia 24.937
rfoot -15.3793 -2.0899
rtoes 8.27278
lfemur 0.539808 -1.37262 -21.9896
ltibia 10.8778
lfoot -9.69026 6.27392
ltoes -11.0372
81
root 0.0255012 18.0146 -0.976522 2.37171 -11.1137 1.29625
lowerback -1.00219 -0.260275 -2.47884
upperback -0.378196 -0.327632 1.41445
thorax 0.196354 -0.162395 2.8378
lowerneck -19.6668 0.283876 -7.77456
upperneck 36.6045 2.99171 1.04154
head 16.3293 0.241829 2.38653
rclavicle -4.46769e-014 1.59028e-014
rhumerus -23.5551 35.4299 -94.3931
rradius 83.6129
rwrist 31.3235
rhand -29.9828 2.84552
rfingers 7.12502
rthumb -3.30083 -27.1087
lclavicle -4.46769e-014 1.59028e-014
lhumerus -25.9335 -14.5714 97.5798
lradius 48.8336
lwrist 7.52837
lhand -29.8974 21.5314
lfingers 7.12502
lthumb -3.21839 51.4868
rfemur -8.80203 8.63819 14.4659
rtibia 24.7828
rfoot -15.4114 -2.11678
rtoes 9.53347
lfemur 0.578756 -1.4847 -21.9277
ltibia 10.9546
lfoot -9.6994 6.17541
ltoes -11.376
82
root 0.0247449 18.0134 -0.978882 2.27482 -11.0072 1.16945
lowerback -0.809569 -0.255984 -2.50116
upperback -0.442742 -0.32611 1.54296
thorax 0.0229343 -0.158048 2.9838
lowerneck -19.5889 0.202679 -7.93087
upperneck 36.6207 2.93357 1.01187
head 16.3233 0.191214 2.38878
rclavicle -3.03519e-014 -6.36111e-015
rhumerus -22.9484 36.0824 -94.0857
rradius 84.3656
rwrist 32.3758
rhand -29.9198 2.70018
rfingers 7.12502
rthumb -3.24003 -27.2549
lclavicle -3.03519e-014 -6.36111e-015
lhumerus -25.9892 -15.1733 98.0597
lradius 49.8706
lwrist 7.58873
lhand -30.13 22.0471
lfingers 7.12502
lthumb -3.44297 51.999
rfemur -8.66788 8.59078 14.6464
rtibia 24.8223
rfoot -15.4672 -2.18376
rtoes 9.63556
lfemur 0.766743 -1.46257 -21.7715
ltibia 10.8008
lfoot -9.60523 6.04597
ltoes -11.5742
83
root 0.0232136 18.0113 -0.978686 2.27266 -11.0021 1.3978
lowerback -0.932771 -0.231788 -2.85759
upperback -0.467011 -0.288405 1.54004
thorax 0.0660324 -0.139028 3.18172
lowerneck -19.4251 0.107087 -8.1528
upperneck 36.478 2.8096 1.11527
head 16.2138 0.132034 2.44325
rclavicle -2.74571e-015 -1.59028e-015
rhumerus -22.1932 36.5854 -93.7117
rradius 85.0665
rwrist 33.5183
rhand -29.7912 3.0009
rfingers 7.12502
rthumb -3.11584 -26.9561
lclavicle -2.74571e-015 -1.59028e-015
lhumerus -26.0138 -15.4416 98.4204
lradius 51.0712
lwrist 7.28676
lhand -30.1797 22.8929
lfingers 7.12502
lthumb -3.49097 52.844
rfemur -8.77543 8.51211 14.4091
rtibia 24.9359
rfoot -15.4668 -2.19558
rtoes 8.57672
lfemur 0.807021 -1.47027 -22.0235
ltibia 10.6311
lfoot -9.5114 6.03892
ltoes -11.5412
84
root 0.0211826 18.0091 -0.97821 2.39562 -10.9781 1.9336
lowerback -1.2807 -0.231159 -3.46058
upperback -0.518178 -0.271461 1.38959
thorax 0.209066 -0.131834 3.3658
lowerneck -19.1438 0.01114 -8.34875
upperneck 36.2425 2.63848 1.26525
head 16.0316 0.0687826 2.50059
rclavicle 1.11941e-014 2.38542e-015
rhumerus -21.3915 37.017 -93.4199
rradius 85.7048
rwrist 34.4495
rhand -29.5621 3.30999
rfingers 7.12502
rthumb -2.89452 -26.6501
lclavicle 1.11941e-014 2.38542e-015
lhumerus -25.9805 -15.9857 98.695
lradius 52.1773
lwrist 7.15318
lhand -30.504 23.8205
lfingers 7.12502
lthumb -3.80422 53.7663
rfemur -9.05317 8.4259 13.7908
rtibia 24.9848
rfoot -15.4392 -2.18272
rtoes 7.90288
lfemur 0.577985 -1.53281 -22.61
ltibia 10.59
lfoot -9.43422 6.08934
ltoes -11.6157
85
root 0.0206284 18.0104 -0.980369 2.38696 -10.8231 1.96506
lowerback -1.31766 -0.253029 -3.48968
upperback -0.527851 -0.29897 1.33704
thorax 0.222037 -0.145704 3.32743
lowerneck -19.0417 -0.0628067 -8.4147
upperneck 36.1357 2.49708 1.3644
head 15.9592 0.0209471 2.52486
rclavicle 5.57839e-015 -6.36111e-015
rhumerus -20.7012 37.544 -93.2141
rradius 86.4097
rwrist 35.255
rhand -29.3826 2.72589
rfingers 7.12502
rthumb -2.72116 -27.2365
lclavicle 5.57839e-015 -6.36111e-015
lhumerus -25.9299 -16.7767 98.9636
lradius 53.0344
lwrist 6.90699
lhand -31.3341 23.8184
lfingers 7.12502
lthumb -4.60571 53.7484
rfemur -9.01272 8.46889 13.7501
rtibia 24.9897
rfoot -15.5747 -2.24371
rtoes 9.1857
lfemur 0.584327 -1.58583 -22.6326
ltibia 10.5229
lfoot -9.36255 5.98066
ltoes -11.8661
86
root 0.0222964 18.0137 -0.979845 2.34718 -10.5954 1.49963
lowerback -1.23926 -0.277887 -2.97879
upperback -0.507838 -0.340724 1.4157
thorax 0.199885 -0.166919 3.12003
lowerneck -19.1356 -0.147295 -8.39612
upperneck 36.1649 2.37546 1.36229
head 16.0052 -0.0294734 2.50053
rclavicle 6.83322e-015 0
rhumerus -20.0062 38.0959 -92.9277
rradius 87.1885
rwrist 36.1591
rhand -28.8665 1.54635
rfingers 7.12502
rthumb -2.22282 -28.4218
lclavicle 6.83322e-015 0
lhumerus -25.8942 -17.698 99.2426
lradius 53.6468
lwrist 5.98149
lhand -32.4065 22.7292
lfingers 7.12502
lthumb -5.64121 52.6341
rfemur -8.77841 8.41257 14.2852
rtibia 24.9467
rfoot -15.6927 -2.27763
rtoes 10.3412
lfemur 0.734221 -1.52426 -22.0953
ltibia 10.4526
lfoot -9.32577 5.7215
ltoes -11.6236
87
root 0.020972 18.0173 -0.974613 2.47526 -10.5284 1.27196
lowerback -1.40298 -0.281339 -2.80774
upperback -0.560884 -0.343817 1.483
thorax 0.236948 -0.168516 3.09237
lowerneck -19.1699 -0.207292 -8.44555
upperneck 36.1693 2.30991 1.35764
head 16.0206 -0.0648716 2.49558
rclavicle -9.26212e-015 -5.96354e-015
rhumerus -19.3494 38.484 -92.5867
rradius 87.9259
rwrist 37.3447
rhand -28.2577 1.22175
rfingers 7.12502
rthumb -1.63482 -28.7517
lclavicle -9.26212e-015 -5.96354e-015
lhumerus -25.6917 -18.1597 99.3281
lradius 54.8912
lwrist 7.5191
lhand -32.1232 23.5019
lfingers 7.12502
lthumb -5.36766 53.414
rfemur -8.77339 8.32602 14.5453
rtibia 24.833
rfoot -15.6536 -2.32015
rtoes 10.1824
lfemur 0.598793 -1.26228 -21.7985
ltibia 10.5574
lfoot -9.37284 5.43254
ltoes -11.3028
88
root 0.01957 18.0171 -0.974501 2.44957 -10.4322 1.34711
lowerback -1.43249 -0.287102 -2.96124
upperback -0.561393 -0.348649 1.4688
thorax 0.254073 -0.171092 3.16409
lowerneck -19.2072 -0.269903 -8.51278
upperneck 36.1227 2.22916 1.39681
head 16.0106 -0.100124 2.50879
rclavicle 1.61078e-014 5.56597e-015
rhumerus -18.6759 38.7459 -92.1949
rradius 88.6105
rwrist 38.6183
rhand -27.5445 1.14097
rfingers 7.12502
rthumb -0.945939 -28.8367
lclavicle 1.61078e-014 5.56597e-015
lhumerus -25.6776 -19.1534 99.6884
lradius 55.814
lwrist 6.53255
lhand -32.9169 25.3783
lfingers 7.12502
lthumb -6.13402 55.2695
rfemur -8.66604 8.24349 14.4764
rtibia 24.6931
rfoot -15.6235 -2.35349
rtoes 10.0349
lfemur 0.493123 -1.19112 -21.8576
ltibia 10.7957
lfoot -9.53811 5.26479
ltoes -11.0904
89
root 0.0174807 18.0149 -0.980474 2.30711 -10.2715 1.39032
lowerback -1.33776 -0.259294 -3.04314
upperback -0.501532 -0.312448 1.41767
thorax 0.259735 -0.153881 3.15838
lowerneck -19.1269 -0.393833 -8.60571
upperneck 35.9442 2.02444 1.49626
head 15.9133 -0.174825 2.52502
rclavicle -9.0447e-015 -6.36111e-015
rhumerus -17.9166 38.9742 -91.7641
rradius 89.2021
rwrist 39.8763
rhand -27.1743 0.348122
rfingers 7.12502
rthumb -0.588474 -29.6308
lclavicle -9.0447e-015 -6.36111e-015
lhumerus -25.4207 -19.4684 99.6594
lradius 56.8672
lwrist 7.97866
lhand -32.4739 23.8976
lfingers 7.12502
lthumb -5.70626 53.8008
rfemur -8.46326 8.18085 14.4712
rtibia 24.6135
rfoot -15.6243 -2.45454
rtoes 9.75204
lfemur 0.514272 -1.22101 -21.887
ltibia 11.0026
lfoot -9.66057 5.13129
ltoes -11.2437
90
root 0.0146867 18.0102 -0.984701 2.12881 -10.1241 1.3058
lowerback -1.19901 -0.239151 -2.97955
upperback -0.440787 -0.289619 1.38835
thorax 0.242086 -0.143043 3.09301
lowerneck -19.0661 -0.478468 -8.63163
upperneck 35.8083 1.85804 1.59416
head 15.8399 -0.226839 2.53734
rclavicle 4.54285e-014 3.97569e-016
rhumerus -17.1768 39.2346 -91.3397
rradius 89.6998
rwrist 41.3022
rhand -27.7162 -0.578302
rfingers 7.12502
rthumb -1.11182 -30.5551
lclavicle 4.54285e-014 3.97569e-016
lhumerus -25.2966 -20.0766 99.7343
lradius 57.8674
lwrist 8.34864
lhand -32.5996 23.5758
lfingers 7.12502
lthumb -5.82767 53.4757
rfemur -8.21605 8.13718 14.6306
rtibia 24.5769
rfoot -15.6396 -2.5809
rtoes 9.40216
lfemur 0.616565 -1.18674 -21.7685
ltibia 11.1175
lfoot -9.74729 5.00592
ltoes -11.4024
